<svg xmlns="http://www.w3.org/2000/svg" version="1.1" xmlns:xlink="http://www.w3.org/1999/xlink" xmlns:svgjs="http://svgjs.dev/svgjs" viewBox="0 0 800 800"><defs><linearGradient x1="50%" y1="0%" x2="50%" y2="100%" id="ccchaos-grad"><stop stop-color="#FAC984" stop-opacity="1" offset="0%"></stop><stop stop-color="#FB8855" stop-opacity="1" offset="100%"></stop></linearGradient></defs><g stroke-width="3" stroke="url(#ccchaos-grad)" fill="none" stroke-linecap="round"><path d="M391.92 171.82C399.32 170.12 406.38 169 413.08 168.46 419.78 168.14 426.13 168.42 432.12 169.29 438.13 170.41 443.81 172.11 449.2 174.37 454.65 176.86 459.89 179.89 464.97 183.42 470.23 187.15 475.45 191.35 480.74 195.96 486.38 200.73 492.24 205.87 498.42 211.35 505.12 216.93 512.27 222.8 519.93 228.93 528.15 235.1 536.87 241.5 546.02 248.08 555.54 254.67 565.26 261.43 574.97 268.32 584.51 275.19 593.57 282.19 601.85 289.28 609.21 296.34 615.27 303.5 619.75 310.74 622.78 317.94 623.99 325.23 623.34 332.59 621.36 339.92 617.87 347.33 613.15 354.8 608.1 362.26 602.7 369.79 597.48 377.38 593.38 384.96 590.4 392.62 588.91 400.33 589.51 408.04 591.92 415.81 596.03 423.62 601.88 431.43 608.55 439.09 615.47 446.59 622.5 454.07 628.61 461.38 633.31 468.48 636.65 475.56 637.92 482.42 637.01 489.03 634.3 495.59 629.54 501.87 623.04 507.85 615.31 513.76 606.49 519.34 597 524.56 587.33 529.68 577.7 534.42 568.4 538.75 559.77 542.98 551.86 546.78 544.75 550.15 535.98 554.84 523.33 561.97 518.71 564.48 511.16 568.1 497.56 571.8 491.36 572.9 484.44 574.52 467.86 578.82 458.36 581.68 451.82 584.12 444.92 586.73 437.68 589.5 430.43 592.71 422.88 596.03 415.07 599.39 407.26 603.07 399.38 606.59 391.46 609.87 383.54 613.26 375.58 616.28 367.58 618.86 359.58 621.35 351.53 623.28 343.45 624.61 335.37 625.7 327.25 626.11 319.14 625.84 311.04 625.25 302.97 623.93 294.98 621.93 287.07 619.57 279.3 616.54 271.76 612.88 264.42 608.89 257.39 604.32 250.78 599.22 244.49 593.86 238.71 588.04 233.52 581.81 228.75 575.41 224.61 568.66 221.15 561.64 218.06 554.5 215.59 547.14 213.71 539.61 211.99 532.03 210.68 524.31 209.69 516.52 208.54 508.7 207.46 500.83 206.36 492.94 204.77 485.04 202.97 477.14 200.91 469.26 198.25 461.39 195.33 453.54 192.23 445.74 188.73 437.95 185.26 430.2 182.02 422.52 178.83 414.84 176.21 407.23 174.35 399.69 173.04 392.15 172.76 384.86 173.51 377.83 174.93 370.79 177.3 363.99 180.51 357.46 184.12 350.9 188.28 344.6 192.83 338.55 197.32 332.47 201.91 326.64 206.46 321.05 210.58 315.42 214.51 310.03 218.21 304.87 222.82 297.16 230.57 282.67 234.12 275.84 237.56 269.03 246.01 255.96 251.39 249.65 255.33 245.31 259.79 241.08 264.74 236.96 269.95 232.66 275.62 228.44 281.7 224.34 288 220.05 294.66 215.87 301.59 211.81 308.69 207.6 316 203.54 323.45 199.66 331 195.67 338.64 191.91 346.29 188.4 354.01 184.87 361.7 181.66 369.32 178.81 376.97 176.04 384.51 173.69 391.91 171.82" stroke-dasharray="0 0" transform="rotate(0, 400, 400)" opacity="0.70"></path><path d="M385.53 183.07C392.44 181.42 399.08 180.3 405.47 179.73 411.86 179.36 418.01 179.55 423.92 180.29 429.85 181.26 435.6 182.77 441.19 184.81 446.87 187.06 452.48 189.82 458.06 193.05 463.85 196.47 469.74 200.33 475.78 204.6 482.16 209.02 488.81 213.8 495.79 218.91 503.19 224.13 510.98 229.64 519.15 235.41 527.68 241.23 536.52 247.29 545.56 253.53 554.7 259.8 563.78 266.23 572.58 272.81 580.98 279.38 588.71 286.09 595.5 292.89 601.32 299.68 605.83 306.56 608.83 313.52 610.56 320.46 610.69 327.48 609.25 334.56 606.79 341.62 603.14 348.75 598.57 355.92 593.92 363.09 589.12 370.31 584.61 377.58 581.2 384.84 578.84 392.14 577.82 399.48 578.66 406.81 581.06 414.18 584.93 421.55 590.34 428.93 596.47 436.14 602.83 443.16 609.39 450.18 615.2 456.99 619.85 463.59 623.42 470.17 625.21 476.51 625.11 482.6 623.43 488.64 619.88 494.41 614.66 499.87 608.22 505.28 600.58 510.36 592.11 515.1 583.22 519.77 574.08 524.07 564.99 527.99 556.24 531.84 547.93 535.3 540.19 538.36 530.04 542.68 514.11 549.36 507.93 551.82 498.24 555.65 483.79 560.11 478.03 561.53 471.82 563.43 457.07 568.16 448.57 571.1 442.71 573.54 436.47 576.11 429.85 578.78 423.22 581.85 416.24 584.99 408.94 588.14 401.65 591.57 394.22 594.84 386.69 597.88 379.18 601.03 371.57 603.83 363.9 606.24 356.24 608.58 348.53 610.42 340.79 611.73 333.09 612.84 325.37 613.35 317.7 613.25 310.09 612.87 302.57 611.85 295.19 610.2 287.95 608.25 280.92 605.68 274.18 602.52 267.68 599.08 261.55 595.09 255.87 590.6 250.52 585.87 245.68 580.69 241.42 575.11 237.51 569.36 234.18 563.26 231.45 556.87 228.99 550.37 227.03 543.62 225.54 536.68 224.1 529.68 222.94 522.52 221.99 515.26 220.79 507.97 219.59 500.59 218.3 493.17 216.51 485.74 214.5 478.28 212.23 470.82 209.41 463.37 206.37 455.92 203.19 448.5 199.66 441.09 196.21 433.72 193 426.4 189.88 419.08 187.3 411.81 185.45 404.62 184.12 397.42 183.77 390.46 184.39 383.74 185.65 377.02 187.82 370.52 190.81 364.27 194.22 357.99 198.21 351.95 202.62 346.14 207.05 340.31 211.64 334.69 216.25 329.3 220.54 323.87 224.69 318.65 228.64 313.64 233.73 306.14 242.29 291.95 246.06 285.21 249.48 278.48 257.15 265.49 261.75 259.2 265.04 254.89 268.76 250.69 272.9 246.58 277.22 242.31 281.96 238.14 287.11 234.07 292.44 229.85 298.13 225.74 304.12 221.76 310.27 217.65 316.66 213.7 323.25 209.92 329.94 206.06 336.76 202.42 343.67 199.04 350.64 195.65 357.64 192.56 364.63 189.82 371.65 187.15 378.62 184.88 385.52 183.08" stroke-dasharray="0 0" transform="rotate(5.944444444444444, 400, 400)" opacity="0.38"></path><path d="M381.73 194.32C388.19 192.72 394.5 191.61 400.67 191.02 406.84 190.6 412.88 190.71 418.8 191.33 424.77 192.15 430.67 193.48 436.54 195.3 442.51 197.32 448.51 199.81 454.6 202.74 460.87 205.86 467.31 209.39 473.96 213.31 480.87 217.37 488.05 221.79 495.51 226.52 503.26 231.37 511.28 236.5 519.52 241.88 527.94 247.34 536.46 253.02 544.96 258.89 553.33 264.8 561.44 270.88 569.06 277.11 576.15 283.35 582.44 289.72 587.71 296.19 592.05 302.66 595.14 309.23 596.85 315.87 597.49 322.51 596.77 329.22 594.77 335.98 592.03 342.73 588.39 349.54 584.11 356.39 579.92 363.23 575.74 370.12 571.93 377.03 569.18 383.93 567.39 390.87 566.79 397.81 567.82 404.75 570.2 411.7 573.83 418.64 578.82 425.58 584.42 432.33 590.25 438.89 596.32 445.44 601.8 451.78 606.33 457.9 611.12 466.92 610.79 483.66 605.55 491.3 600.37 496.25 593.97 500.89 586.63 505.2 578.71 509.46 570.33 513.39 561.75 516.97 553.24 520.5 544.91 523.68 536.91 526.5 529.42 529.3 522.41 531.75 515.93 533.88 507.39 536.91 493.28 541.63 487.26 543.45 481.85 545.29 471.05 548.64 465.25 550.35 459.24 552.5 445.49 557.57 437.68 560.58 432.33 562.99 426.6 565.49 420.52 568.07 414.43 570.99 407.99 573.94 401.22 576.88 394.45 580.08 387.53 583.1 380.49 585.91 373.47 588.82 366.35 591.42 359.17 593.65 352.02 595.84 344.82 597.58 337.63 598.84 330.49 599.96 323.38 600.53 316.36 600.56 309.45 600.36 302.67 599.59 296.09 598.25 289.67 596.65 283.53 594.5 277.71 591.8 272.13 588.86 266.96 585.41 262.23 581.48 257.8 577.35 253.86 572.78 250.45 567.82 247.31 562.7 244.67 557.23 242.53 551.47 240.55 545.6 238.97 539.47 237.72 533.14 236.42 526.73 235.31 520.15 234.29 513.44 232.97 506.7 231.59 499.85 230.07 492.93 228.06 486 225.83 479.01 223.37 472.01 220.41 465 217.27 457.98 214.03 450.98 210.51 443.98 207.1 436.99 203.94 430.05 200.89 423.11 198.38 416.21 196.55 409.37 195.21 402.52 194.79 395.89 195.28 389.49 196.37 383.07 198.34 376.87 201.1 370.88 204.28 364.88 208.05 359.09 212.28 353.51 216.59 347.9 221.12 342.49 225.74 337.28 230.12 332.03 234.43 326.97 238.6 322.1 244.13 314.78 253.62 300.87 257.76 294.23 261.39 287.58 268.85 274.71 273.01 268.46 277.45 262.11 288.18 249.7 294.53 243.64 299 239.5 303.83 235.48 308.96 231.59 314.21 227.6 319.73 223.77 325.48 220.11 331.32 216.4 337.34 212.89 343.51 209.64 349.72 206.39 356.04 203.43 362.43 200.81 368.83 198.25 375.27 196.07 381.72 194.33" stroke-dasharray="0 0" transform="rotate(11.888888888888888, 400, 400)" opacity="0.17"></path><path d="M381.2 205.58C387.27 204.02 393.3 202.94 399.29 202.32 405.29 201.87 411.27 201.9 417.24 202.4 423.26 203.09 429.31 204.25 435.41 205.85 441.61 207.64 447.92 209.88 454.35 212.52 460.95 215.33 467.73 218.53 474.7 222.1 481.85 225.81 489.21 229.86 496.77 234.21 504.47 238.67 512.3 243.41 520.21 248.39 528.11 253.46 535.93 258.74 543.53 264.22 550.87 269.75 557.77 275.45 564.06 281.29 569.76 287.16 574.6 293.17 578.44 299.27 581.42 305.39 583.27 311.6 583.91 317.89 583.69 324.18 582.37 330.54 580.02 336.95 577.19 343.36 573.71 349.82 569.81 356.3 566.14 362.79 562.6 369.31 559.45 375.84 557.31 382.37 556.04 388.91 555.81 395.44 557 401.98 559.34 408.5 562.74 415 567.31 421.49 572.41 427.8 577.72 433.9 583.3 439.99 588.42 445.87 592.78 451.53 597.74 459.87 599.34 475.26 595.69 482.26 591.72 486.8 586.55 491.06 580.39 495 573.58 498.92 566.15 502.53 558.33 505.82 550.38 509.08 542.37 512.03 534.47 514.68 526.84 517.31 519.51 519.65 512.55 521.7 502.99 524.68 486.47 529.54 479.27 531.53 472.77 533.57 460.44 537.42 454.25 539.38 448.05 541.73 434.58 547.05 427.17 550.09 422.13 552.46 416.79 554.89 411.14 557.36 405.48 560.12 399.52 562.89 393.27 565.63 387.02 568.59 380.64 571.38 374.17 573.96 367.71 576.64 361.17 579.03 354.6 581.08 348.07 583.12 341.53 584.75 335.03 585.96 328.61 587.05 322.26 587.67 316.04 587.79 306.98 587.46 290.23 583.92 282.76 580.74 275.98 576.77 264.87 566.3 260.6 559.93 257.04 552.98 251.94 537.39 250.12 528.9 248.84 523.09 247.66 517.1 246.5 510.96 244.99 504.78 243.38 498.47 241.62 492.08 239.39 485.67 236.95 479.18 234.31 472.65 231.24 466.12 228.03 459.55 224.76 452.99 221.28 446.42 217.93 439.85 214.84 433.3 211.89 426.75 209.44 420.23 207.64 413.75 206.31 407.27 205.82 400.97 206.18 394.88 207.11 388.77 208.87 382.86 211.38 377.14 214.31 371.41 217.83 365.86 221.83 360.5 225.96 355.11 230.37 349.9 234.93 344.86 239.34 339.79 243.74 334.88 248.06 330.14 253.96 323.01 264.39 309.39 268.98 302.85 272.99 296.3 280.73 283.59 284.75 277.41 288.82 271.16 298.27 258.95 303.75 253.02 307.56 248.99 311.69 245.08 316.11 241.31 320.6 237.45 325.37 233.75 330.4 230.24 335.47 226.67 340.77 223.32 346.27 220.21 351.79 217.11 357.48 214.28 363.32 211.78 369.16 209.34 375.12 207.26 381.19 205.58" stroke-dasharray="0 0" transform="rotate(17.833333333333332, 400, 400)" opacity="0.66"></path><path d="M384.02 216.83C395.48 213.96 407.16 212.88 419.05 213.52 431.11 214.8 443.62 217.81 456.64 222.39 470.06 227.56 484.12 234.18 498.58 242 513.12 250.24 527.46 259.52 540.72 269.59 552.56 279.88 561.88 290.83 567.7 302.22 570.65 313.69 569.67 325.54 565.12 337.58 559.53 349.65 552.96 361.88 547.19 374.13 545.08 386.4 546.48 398.67 551.64 410.77 560.8 422.87 570.71 434.19 579.21 444.64 585.89 455.04 587.97 464.5 585.08 472.93 578.43 481.26 567.73 488.52 554.39 494.66 539.92 500.74 524.99 505.77 510.6 509.77 497.33 513.91 485.21 517.25 474.19 519.91 464.4 523.1 455.13 525.95 445.98 528.6 437.34 532.19 428.23 535.86 418.43 539.64 408.7 544.53 398.06 549.52 386.53 554.38 375 560.01 363.19 564.81 351.39 568.55 339.73 572.28 328.31 574.45 317.5 574.97 307.13 574.93 297.7 573.03 289.58 569.36 282.13 565 276.15 558.95 271.75 551.44 267.68 543.4 264.73 534.13 262.56 523.92 259.59 513.42 256.49 502.19 252.9 490.51 247.59 478.72 241.63 466.6 235.38 454.37 228.46 442.12 222.59 429.81 218.74 417.59 216.57 405.37 217.62 393.79 221.66 382.89 227.34 371.95 235.02 361.63 243.85 351.94 252.42 342.12 260.98 332.83 269.14 324.09 275.94 315.09 282.29 306.51 288.37 298.38 293.46 289.88 298.88 281.73 304.9 273.98 310.66 265.85 317.42 258.11 325.23 250.91 333.1 243.45 342.04 236.65 351.91 230.74 361.82 224.88 372.55 220.14 384.01 216.83" stroke-dasharray="0 0" transform="rotate(23.777777777777775, 400, 400)" opacity="0.98"></path><path d="M389.7 228.08C400.54 225.33 411.83 224.21 423.51 224.67 435.3 225.69 447.63 228.3 460.38 232.35 473.32 236.94 486.63 242.86 499.94 249.92 512.93 257.38 525.24 265.82 536.08 275.04 545.37 284.49 552.11 294.58 555.62 305.12 556.85 315.76 554.88 326.78 550.21 337.99 545.17 349.24 539.67 360.65 535.13 372.06 533.92 383.49 535.67 394.9 540.54 406.11 548.83 417.33 557.78 427.79 565.64 437.42 572.26 447 575.11 455.71 573.75 463.46 569.18 471.16 560.79 477.89 549.63 483.63 536.98 489.37 523.27 494.2 509.48 498.15 496.17 502.29 483.56 505.75 471.81 508.64 461 512.03 450.8 515.12 440.98 518.01 431.66 521.73 422.25 525.47 412.55 529.23 402.96 533.92 392.84 538.62 382.2 543.13 371.55 548.29 360.91 552.66 350.49 556.06 340.21 559.48 330.36 561.52 321.25 562.11 312.49 562.26 304.71 560.77 298.18 557.7 292.08 554.07 287.24 548.9 283.64 542.39 280.06 535.42 277.24 527.27 274.87 518.19 271.54 508.84 267.94 498.74 263.85 488.12 258.23 477.4 252.11 466.29 245.88 454.99 239.18 443.67 233.55 432.2 229.84 420.74 227.65 409.28 228.42 398.35 231.96 388 237.07 377.61 244.17 367.74 252.54 358.41 260.93 348.97 269.55 339.97 277.98 331.45 285.34 322.71 292.3 314.34 298.95 306.38 304.59 298.11 310.34 290.16 316.42 282.62 322.05 274.77 328.42 267.31 335.64 260.4 342.76 253.29 350.85 246.84 359.88 241.24 368.9 235.71 378.84 231.24 389.69 228.08" stroke-dasharray="0 0" transform="rotate(29.722222222222225, 400, 400)" opacity="0.76"></path><path d="M397.21 239.33C407.46 236.7 418.24 235.56 429.42 235.86 440.67 236.65 452.37 238.88 464.32 242.43 476.27 246.44 488.26 251.7 499.88 258 510.95 264.68 521 272.29 529.35 280.63 536.24 289.21 540.72 298.42 542.39 308.07 542.37 317.84 539.87 327.98 535.41 338.31 531.09 348.7 526.68 359.25 523.29 369.79 522.85 380.35 524.88 390.88 529.45 401.22 536.91 411.56 544.92 421.19 552.1 430.04 558.5 438.86 561.87 446.88 561.75 454.03 558.99 461.16 552.76 467.44 543.8 472.86 533.21 478.31 521.17 482.99 508.54 486.92 495.88 491.06 483.44 494.63 471.55 497.71 460.26 501.26 449.51 504.54 439.25 507.61 429.41 511.4 419.73 515.15 410.1 518.84 400.59 523.32 390.9 527.73 381.04 531.88 371.18 536.59 361.62 540.54 352.51 543.6 343.48 546.71 335.06 548.61 327.45 549.21 320.08 549.51 313.67 548.35 308.36 545.8 303.24 542.79 299.15 538.41 295.98 532.8 292.56 526.8 289.61 519.69 286.86 511.68 283.09 503.43 278.99 494.43 274.44 484.87 268.59 475.21 262.41 465.11 256.27 454.75 249.85 444.36 244.49 433.76 240.93 423.09 238.75 412.41 239.26 402.14 242.3 392.36 246.8 382.54 253.26 373.14 261.05 364.2 269.08 355.16 277.57 346.5 286.09 338.25 293.83 329.81 301.29 321.7 308.46 313.96 314.73 305.97 320.96 298.29 327.32 291.01 333.16 283.49 339.49 276.37 346.46 269.78 353.22 263.06 360.81 256.97 369.26 251.7 377.64 246.51 386.96 242.31 397.21 239.33" stroke-dasharray="0 0" transform="rotate(35.666666666666664, 400, 400)" opacity="0.93"></path><path d="M405.23 250.58C414.87 248.09 424.97 246.95 435.37 247.1 445.79 247.67 456.48 249.55 467.18 252.62 477.74 256.09 488.05 260.7 497.68 266.28 506.67 272.18 514.43 278.96 520.47 286.44 525.27 294.14 527.93 302.44 528.25 311.18 527.46 320.04 524.81 329.27 520.82 338.7 517.33 348.19 514 357.83 511.65 367.48 511.87 377.15 514.1 386.8 518.35 396.28 525.02 405.75 532.13 414.58 538.61 422.69 544.66 430.8 548.32 438.18 549.14 444.8 547.87 451.42 543.58 457.3 536.73 462.44 528.29 467.65 518.18 472.2 507.13 476.12 495.68 480.26 484.04 483.91 472.61 487.15 461.45 490.8 450.66 494.2 440.33 497.4 430.3 501.19 420.55 504.9 411.07 508.49 401.7 512.73 392.42 516.82 383.27 520.63 374.12 524.89 365.51 528.45 357.52 531.18 349.56 533.98 342.32 535.71 335.92 536.31 326.9 536.24 313.33 529.36 308.38 522.7 304.86 517.58 301.59 511.43 298.35 504.42 294.13 497.21 289.57 489.25 284.65 480.72 278.67 472.1 272.52 462.99 266.56 453.57 260.46 444.12 255.42 434.4 252.03 424.52 249.87 414.64 250.13 405.07 252.68 395.88 256.57 386.66 262.33 377.77 269.44 369.26 276.96 360.67 285.11 352.38 293.49 344.45 301.38 336.37 309.16 328.58 316.72 321.12 323.54 313.48 330.27 306.13 337.02 299.17 343.24 292.03 349.76 285.28 356.71 279.06 363.41 272.76 370.76 267.06 378.81 262.14 386.78 257.31 395.58 253.39 405.23 250.58" stroke-dasharray="0 0" transform="rotate(41.611111111111114, 400, 400)" opacity="0.86"></path><path d="M412.31 261.84C421.29 259.48 430.55 258.35 439.94 258.38 449.3 258.76 458.7 260.31 467.87 262.93 476.82 265.89 485.27 269.88 492.86 274.75 499.82 279.91 505.51 285.87 509.58 292.49 512.7 299.31 514.02 306.71 513.5 314.53 512.35 322.47 509.89 330.77 506.57 339.27 503.95 347.84 501.64 356.57 500.22 365.32 500.98 374.09 503.33 382.86 507.25 391.48 513.17 400.1 519.41 408.15 525.17 415.58 530.77 422.99 534.51 429.79 535.99 435.92 535.91 442.07 533.26 447.6 528.32 452.49 521.96 457.47 513.88 461.9 504.66 465.8 494.83 469.91 484.48 473.61 474.03 476.94 463.58 480.64 453.29 484.11 443.32 487.36 433.52 491.1 424.02 494.72 414.87 498.17 405.8 502.14 396.98 505.92 388.49 509.37 379.99 513.22 372.18 516.38 365.09 518.8 354.82 522.07 338.1 523.48 331.62 521.37 325.54 517.8 314.8 505.17 309.2 496.45 304.56 490.19 299.64 483.22 294.47 475.67 288.47 468.04 282.45 459.91 276.75 451.41 271.03 442.9 266.32 434.05 263.13 424.99 261.01 415.93 261.04 407.08 263.12 398.52 266.4 389.93 271.42 381.59 277.77 373.55 284.64 365.45 292.26 357.6 300.28 350.05 308.06 342.39 315.9 334.98 323.64 327.88 330.84 320.64 337.97 313.68 345.05 307.1 351.67 300.39 358.46 294.06 365.5 288.25 372.29 282.39 379.54 277.1 387.31 272.55 394.99 268.08 403.32 264.45 412.31 261.84" stroke-dasharray="0 0" transform="rotate(47.55555555555555, 400, 400)" opacity="0.75"></path><path d="M417.19 273.09C425.45 270.89 433.76 269.78 441.97 269.71 450.15 269.92 458.11 271.17 465.65 273.37 472.96 275.85 479.6 279.25 485.29 283.45 490.46 287.89 494.43 293.07 496.98 298.86 498.88 304.82 499.35 311.32 498.44 318.23 497.29 325.24 495.26 332.6 492.72 340.18 490.99 347.82 489.6 355.62 488.98 363.48 490.16 371.35 492.58 379.24 496.16 387.02 501.36 394.81 506.78 402.11 511.82 408.87 518.71 418.75 522.52 435.84 518.57 443.09 514.09 447.84 507.98 452.14 500.66 455.99 492.66 460.03 483.93 463.73 474.84 467.1 465.58 470.79 456.25 474.25 447.07 477.48 437.93 481.12 429 484.6 420.41 487.86 411.87 491.55 403.62 495.01 395.76 498.12 387.9 501.55 380.76 504.35 374.35 506.46 365.03 509.34 349.69 510.67 343.46 508.94 337.3 505.99 325.57 495.3 319.29 487.8 314.33 482.42 309.18 476.37 303.88 469.75 298 463.06 292.22 455.87 286.85 448.29 281.54 440.68 277.2 432.72 274.22 424.49 272.17 416.26 272 408.15 273.63 400.25 276.31 392.33 280.57 384.58 286.11 377.08 292.21 369.53 299.14 362.17 306.58 355.07 314.01 347.89 321.63 340.92 329.28 334.25 336.6 327.47 343.9 320.96 351.14 314.82 358.05 308.58 365.03 302.72 372.12 297.35 379.01 291.96 386.18 287.1 393.66 282.92 401.08 278.84 408.92 275.51 417.19 273.09" stroke-dasharray="0 0" transform="rotate(53.5, 400, 400)" opacity="0.63"></path><path d="M418.99 284.34C426.46 282.31 433.75 281.24 440.75 281.08 447.7 281.14 454.25 282.12 460.24 283.94 468.55 287.41 480.27 298.38 483.12 305.57 484.27 310.7 484.34 316.33 483.42 322.34 482.54 328.44 481.09 334.88 479.38 341.54 478.47 348.25 477.89 355.14 477.94 362.1 479.43 369.08 481.83 376.1 485.06 383.07 489.59 390.03 494.22 396.6 498.56 402.72 504.74 411.69 509.64 427.47 507.51 434.31 504.64 438.82 500.31 442.95 494.8 446.71 488.66 450.64 481.68 454.28 474.18 457.62 466.41 461.22 458.38 464.61 450.31 467.77 442.19 471.24 434.16 474.53 426.35 477.58 418.56 480.96 411.01 484.09 403.8 486.87 396.59 489.9 390.03 492.34 384.11 494.16 375.47 496.66 360.82 497.85 354.51 496.4 348.09 493.96 335.33 484.96 328.53 478.57 323.41 473.98 318.17 468.77 312.92 463.02 307.28 457.22 301.84 450.92 296.86 444.22 292.02 437.51 288.06 430.42 285.32 423.02 283.36 415.63 283.02 408.29 284.23 401.09 286.33 393.87 289.85 386.77 294.53 379.85 299.79 372.9 305.9 366.1 312.58 359.52 319.4 352.88 326.54 346.43 333.81 340.25 340.94 334 348.12 328 355.27 322.34 362.21 316.63 369.19 311.27 376.19 306.37 383.05 301.47 390.04 297.06 397.16 293.28 404.23 289.57 411.53 286.55 418.99 284.34" stroke-dasharray="0 0" transform="rotate(59.44444444444445, 400, 400)" opacity="0.07"></path><path d="M417.41 295.59C427.15 293.23 444.55 292.82 451.84 294.65 458.23 297.47 466.71 306.61 468.57 312.68 469.37 319.41 467.89 334.94 466.59 343.47 466.41 349.27 466.51 355.26 467.07 361.34 468.76 367.44 471.08 373.62 473.97 379.78 477.85 385.93 481.75 391.78 485.4 397.28 490.78 405.36 496.1 419.81 495.3 426.21 492.27 432.4 479.88 443.49 471.37 448.49 465.21 451.94 458.65 455.19 451.89 458.2 445.04 461.46 438.11 464.52 431.26 467.32 424.41 470.38 417.67 473.17 411.15 475.62 401.62 479.31 385 484.03 377.75 484.88 370.67 485.03 357.47 481.79 350.99 478.4 346.32 475.84 341.62 472.63 336.9 468.82 331.78 464.94 326.64 460.5 321.6 455.57 316.32 450.58 311.32 445.14 306.8 439.3 302.46 433.44 298.91 427.21 296.42 420.66 294.57 414.11 294.08 407.56 294.92 401.09 296.49 394.61 299.28 388.2 303.12 381.93 307.49 375.63 312.68 369.45 318.47 363.45 324.48 357.42 330.89 351.55 337.52 345.92 344.14 340.25 350.89 334.81 357.66 329.69 364.33 324.54 371.03 319.72 377.71 315.31 384.31 310.93 390.93 306.99 397.55 303.61 404.15 300.3 410.79 297.59 417.41 295.59" stroke-dasharray="0 0" transform="rotate(65.3888888888889, 400, 400)" opacity="0.78"></path><path d="M412.71 306.84C424.16 303.65 433.78 303.33 441.09 305.51 448.06 308.23 452.37 313.31 453.9 320.21 455.47 327.48 455.3 336.3 454.38 346.06 455.9 355.94 458.67 366.54 462.87 377.28 470.02 388.01 476.23 397.84 480.07 406.49 483.04 415.25 481.94 423.07 477.12 429.79 470.78 436.93 461.62 443.33 450.92 448.77 439.82 454.93 428.05 460.3 416.51 464.37 404.96 469.03 394.64 471.62 385.55 472.14 376.04 472.66 367.06 470.78 358.48 466.68 348.85 462.36 339.15 455.84 329.96 447.49 320.36 439.02 312.37 428.88 307.52 417.48 304.66 406.07 306.39 394.52 311.95 383.37 319.31 372.19 329.37 361.32 340.78 351.3 352.52 341.21 364.88 331.97 377.07 324.2 389.19 316.52 401.26 310.5 412.71 306.84" stroke-dasharray="0 0" transform="rotate(71.33333333333333, 400, 400)" opacity="0.65"></path><path d="M405.74 318.09C415.39 315.27 423.23 314.85 428.99 316.51 434.63 318.56 438.18 322.6 439.73 328.19 441.65 334.04 442.45 341.27 442.8 349.37 445.05 357.57 448.05 366.49 451.77 375.67 457.62 384.84 462.6 393.4 465.79 401.09 468.67 408.87 468.57 415.94 465.57 422.13 461.59 428.64 455.1 434.5 446.94 439.47 438.43 444.94 428.87 449.64 418.92 453.11 408.96 457.02 399.55 459.13 390.82 459.47 381.81 459.86 373.01 458.27 364.51 454.84 355.38 451.3 346.36 445.9 338.05 438.92 329.68 431.87 322.82 423.34 318.61 413.62 315.93 403.9 316.94 393.95 321.08 384.28 326.67 374.59 334.67 365.15 344.03 356.44 353.88 347.71 364.48 339.73 375.02 333.03 385.63 326.44 396.08 321.26 405.74 318.09" stroke-dasharray="0 0" transform="rotate(77.27777777777777, 400, 400)" opacity="0.26"></path><path d="M397.74 329.35C408.82 326.68 423.07 330.68 426.57 336.63 428.9 341.2 430.54 346.94 431.84 353.47 434.49 360.07 437.48 367.37 440.68 375.01 445.32 382.65 449.14 389.91 451.6 396.56 454.09 403.27 454.44 409.48 452.63 414.99 450.3 420.72 445.91 425.9 439.92 430.28 433.68 434.99 426.22 438.98 417.94 441.86 409.67 445.04 401.39 446.69 393.39 446.89 385.23 447.15 377.09 445.8 369.21 442.97 361.04 440.09 353.09 435.71 345.95 430.01 338.93 424.27 333.24 417.27 329.71 409.22 327.28 401.17 327.71 392.87 330.59 384.75 334.54 376.65 340.5 368.71 347.73 361.39 355.44 354.09 363.95 347.41 372.53 341.82 381.24 336.33 389.85 332.02 397.74 329.35" stroke-dasharray="0 0" transform="rotate(83.22222222222223, 400, 400)" opacity="0.77"></path><path d="M390.15 340.6C398.91 338.36 411.06 341.09 414.83 345.53 418.54 351.13 425.57 366.35 429.58 375.33 434.49 384.41 439.71 401.05 438.79 408.34 436.01 415.33 423.12 426.69 413.76 430.61 407.2 433.09 400.33 434.33 393.48 434.4 386.58 434.53 379.59 433.41 372.84 431.14 366.02 428.86 359.49 425.4 353.71 420.91 348.14 416.39 343.64 410.86 340.81 404.46 338.69 398.07 338.7 391.44 340.52 384.94 343.05 378.45 347.15 372.09 352.31 366.22 357.86 360.38 364.16 355.04 370.67 350.59 377.29 346.21 383.94 342.76 390.15 340.6" stroke-dasharray="0 0" transform="rotate(89.16666666666667, 400, 400)" opacity="0.12"></path><path d="M384.32 351.85C393.49 348.86 400.36 350.29 404.8 354.9 410.25 359.73 415.02 367.42 418.48 376.62 423.92 385.81 426.17 394.79 424.6 402.12 422.89 409.73 416.81 416.05 407.12 419.36 397.43 423.08 386.19 422.9 375.78 419.43 365.49 415.96 356.52 409.05 351.9 399.53 348.96 390.01 351.73 379.77 358.15 370.98 365.52 362.3 375.14 355.2 384.32 351.85" stroke-dasharray="0 0" transform="rotate(95.1111111111111, 400, 400)" opacity="0.81"></path><path d="M381.28 363.1C393.42 359.15 403.39 366.52 407.39 378.83 414.77 391.12 411.89 403.87 399.21 408.11 386.52 413.06 369.62 407.21 363 394.62 359.41 382.01 369.14 367.72 381.28 363.1" stroke-dasharray="0 0" transform="rotate(101.05555555555556, 400, 400)" opacity="0.73"></path></g></svg>